# AST/ASF file generated using VICON BodyLanguage
# -----------------------------------------------
:version 1.10
:name VICON
:units
  mass 1.0
  length 0.45
  angle deg
:documentation
   .ast/.asf automatically generated from VICON data using
   VICON BodyBuilder and BodyLanguage model FoxedUp or BRILLIANT.MOD
:root
   order TX TY TZ RX RY RZ
   axis XYZ
   position 0 0 0  
   orientation 0 0 0 
:bonedata
  begin
     id 1 
     name lhipjoint
     direction 0.535335 -0.74333 0.401095 
     length 2.04549 
     axis 0 0 0  XYZ
  end
  begin
     id 2 
     name lfemur
     direction 0.34202 -0.939693 0  
     length 6.95643  
     axis 0 0 20  XYZ
    dof rx ry rz
    limits (-160.0 20.0)
           (-70.0 70.0)
           (-60.0 70.0)
  end
  begin
     id 3 
     name ltibia
     direction 0.34192 -0.939729 0   
     length 5.55969   
     axis 0 0 20   XYZ
    dof rx
    limits (-10.0 170.0)
  end
  begin
     id 4 
     name lfoot
     direction 0.216943 -0.596046 0.773088   
     length 2.27918   
     axis -90 7.62852e-016 20   XYZ
    dof rx rz
    limits (-45.0 90.0)
           (-70.0 20.0)
  end
  begin
     id 5 
     name ltoes
     direction 1.53519e-011 -4.21748e-011 1   
     length 1.05562   
     axis -90 7.62852e-016 20   XYZ
    dof rx
    limits (-90.0 20.0)
  end
  begin
     id 6 
     name rhipjoint
     direction -0.576368 -0.719173 0.38806   
     length 2.1142  
     axis 0 0 0  XYZ 
  end
  begin
     id 7 
     name rfemur
     direction -0.34202 -0.939693 0   
     length 7.07928   
     axis 0 0 -20   XYZ
    dof rx ry rz
    limits (-160.0 20.0)
           (-70.0 70.0)
           (-70.0 60.0)
  end
  begin
     id 8 
     name rtibia
     direction -0.34202 -0.939693 0   
     length 5.79974   
     axis 0 0 -20   XYZ
    dof rx
    limits (-10.0 170.0)
 end
 begin
     id 9 
     name rfoot
     direction -0.189288 -0.520065 0.832888   
     length 2.42173  
     axis -90 -7.62852e-016 -20   XYZ
    dof rx rz
    limits (-45.0 90.0)
           (-20.0 70.0)
  end
  begin
     id 10 
     name rtoes
     direction -1.53574e-011 -4.21658e-011 1   
     length 1.14469   
     axis -90 -7.62852e-016 -20   XYZ
    dof rx
    limits (-90.0 20.0)
  end
  begin
     id 11 
     name lowerback
     direction -0.00135702 0.993803 0.111144   
     length 1.91308   
     axis 0 0 0   XYZ
    dof rx ry rz
    limits (-20.0 45.0)
           (-30.0 30.0)
           (-30.0 30.0)
  end
  begin
     id 12 
     name upperback
     direction -0.0056745 0.999813 0.0184631   
     length 1.9212   
     axis 0 0 0   XYZ
    dof rx ry rz
    limits (-20.0 45.0)
           (-30.0 30.0)
           (-30.0 30.0)
  end
  begin
     id 13 
     name thorax
     direction -0.00733434 0.999426 -0.0330788   
     length 1.94196   
     axis 0 0 0   XYZ
    dof rx ry rz
    limits (-20.0 45.0)
           (-30.0 30.0)
           (-30.0 30.0)
  end
  begin
     id 14 
     name lowerneck
     direction 0.0563074 0.996944 -0.0541571   
     length 2.34257   
     axis 0 0 0   XYZ
    dof rx ry rz
    limits (-20.0 45.0)
           (-30.0 30.0)
           (-30.0 30.0)
  end
  begin
     id 15 
     name upperneck
     direction -0.0544519 0.976166 -0.210085   
     length 2.32506   
     axis 0 0 0   XYZ
    dof rx ry rz
    limits (-20.0 45.0)
           (-30.0 30.0)
           (-30.0 30.0)
  end
  begin
     id 16
     name head
     direction -0.0226035 0.997615 -0.0652205  
     length 2.3648  
     axis 0 0 0   XYZ
    dof rx ry rz
    limits (-20.0 45.0)
           (-30.0 30.0)
           (-30.0 30.0)
  end
  begin
     id 17 
     name lclavicle
     direction 0.92109 0.381297 -0.0787716  
     length 4.0487  
     axis 0 0 0   XYZ
    dof ry rz
    limits (-20.0 10.0)
           (0.0 20.0)
  end
  begin
     id 18 
     name lhumerus
     direction 1 -4.48986e-011 3.56724e-027   
     length 4.94991   
     axis 180 -30 -90   XYZ
    dof rx ry rz
    limits (-60.0 90.0)
           (-90.0 90.0)
           (-90.0 90.0)
  end
  begin
     id 19
     name lradius
     direction 1 -4.48981e-011 8.62147e-027   
     length 2.7606   
     axis 180 -30 -90   XYZ
    dof rx
    limits (-10.0 170.0)
  end
  begin
     id 20
     name lwrist
     direction 1 -4.48989e-011 1.59799e-026   
     length 1.3803   
     axis -1.17785e-014 90 90   XYZ
    dof ry
    limits (-180.0 0.0)
 end
  begin
     id 21 
     name lhand
     direction 1 -4.48896e-011 3.19599e-026   
     length 0.843936   
     axis -2.03931e-014 90 90   XYZ
    dof rx rz
    limits (-90.0 90.0)
           (-45.0 45.0)
  end
  begin
     id 22 
     name lfingers
     direction 1 -4.48887e-011 6.39197e-026   
     length 0.680403   
     axis -4.07862e-014 90 90   XYZ
    dof rx
    limits (0.0 90.0)
  end
  begin
     id 23
     name lthumb
     direction 0.707107 -6.348e-011 0.707107   
     length 0.976926   
     axis -90 45 2.85299e-015   XYZ
    dof rx rz
    limits (-45.0 45.0)
           (-45.0 45.0)
  end
  begin
     id 24 
     name rclavicle
     direction -0.951104 0.307692 -0.026953   
     length 4.21801  
     axis 0 0 0   XYZ 
    dof ry rz
    limits (-10.0 20.0)
           (-20.0 0.0)
  end
  begin
     id 25 
     name rhumerus
     direction -1 -4.4896e-011 -1.8171e-018  
     length 4.32982   
     axis 180 30 90   XYZ
    dof rx ry rz
    limits (-90.0 60.0)
           (-90.0 90.0)
           (-90.0 90.0)
  end
  begin
     id 26 
     name rradius
     direction -1 -4.48959e-011 8.25165e-027   
     length 3.20057   
     axis 180 30 90   XYZ
    dof rx
    limits (-10.0 170.0)
  end
  begin
     id 27 
     name rwrist
     direction -1 -4.48997e-011 1.59799e-026   
     length 1.60029   
     axis -1.17785e-014 -90 -90   XYZ
    dof ry
    limits (-180.0 0.0)
  end
  begin
     id 28
     name rhand
     direction -1 -4.49023e-011 3.19599e-026   
     length 0.960433   
     axis -2.03931e-014 -90 -90   XYZ
    dof rx rz
    limits (-90.0 90.0)
           (-45.0 45.0)
  end
  begin
     id 29
     name rfingers
     direction -1 -4.48802e-011 6.39197e-026   
     length 0.774326   
     axis -4.07862e-014 -90 -90   XYZ
    dof rx
    limits (0.0 90.0)
  end
  begin
     id 30
     name rthumb
     direction -0.707107 -6.34876e-011 0.707107   
     length 1.11178   
     axis -90 -45 -2.85299e-015   XYZ
    dof rx rz
    limits (-45.0 45.0)
           (-45.0 45.0)
  end
:hierarchy
  begin
    root lhipjoint rhipjoint lowerback
    lhipjoint lfemur
    lfemur ltibia
    ltibia lfoot
    lfoot ltoes
    rhipjoint rfemur
    rfemur rtibia
    rtibia rfoot
    rfoot rtoes
    lowerback upperback
    upperback thorax
    thorax lowerneck lclavicle rclavicle
    lowerneck upperneck
    upperneck head
    lclavicle lhumerus
    lhumerus lradius
    lradius lwrist
    lwrist lhand lthumb
    lhand lfingers
    rclavicle rhumerus
    rhumerus rradius
    rradius rwrist
    rwrist rhand rthumb
    rhand rfingers
end

#!OML:ASF C:\KaitlinTest1\Natural Motions\Nikki\Session 2\Nikki.ASF
:FULLY-SPECIFIED
:DEGREES
460
root -13.7459 16.7307 5.08534 -329.36 92.055 -339.059
lowerback -13.4911 -1.38695 1.9767
upperback -5.4054 -1.80714 -0.692159
thorax 1.78833 -0.82221 -2.09686
lowerneck -9.84301 -12.9584 -8.14464
upperneck 5.04476 41.9306 5.76851
head 167.548 57.0311 -37.934
rclavicle -2.19409e-014 -1.13307e-014
rhumerus -33.5397 -15.89 -87.6679
rradius 19.9264
rwrist 16.3946
rhand -37.706 2.88761
rfingers 7.12502
rthumb -10.7557 -26.817
lclavicle -2.19409e-014 -1.13307e-014
lhumerus -34.4115 14.4673 81.7114
lradius 21.6279
lwrist -32.4432
lhand -34.643 4.28432
lfingers 7.12502
lthumb -7.80025 34.1204
rfemur -9.79744 -19.6948 20.5696
rtibia 13.2265
rfoot -10.9695 14.1694
rtoes -1.11319e-014
lfemur -14.8627 19.7061 -19.5728
ltibia 13.8471
lfoot -1.84068 -19.6235
ltoes -7.95139e-015
461
root -13.7472 16.7295 5.08536 -330.216 92.0627 -339.904
lowerback -13.5056 -1.37836 1.94441
upperback -5.38181 -1.79296 -0.700356
thorax 1.82241 -0.814625 -2.08597
lowerneck -9.84467 -12.9772 -8.15775
upperneck 5.02442 41.8592 5.74418
head 167.483 57.1142 -37.9709
rclavicle -1.59028e-015 -3.18055e-015
rhumerus -33.6547 -17.0524 -86.9596
rradius 19.3312
rwrist 17.4823
rhand -37.6996 2.75823
rfingers 7.12502
rthumb -10.7495 -26.9467
lclavicle -1.59028e-015 -3.18055e-015
lhumerus -34.6319 16.5986 80.645
lradius 21.2532
lwrist -34.9744
lhand -34.3118 3.99985
lfingers 7.12502
lthumb -7.48053 33.8476
rfemur -9.77545 -19.6241 20.5315
rtibia 13.2204
rfoot -10.916 14.0714
rtoes -8.18993e-014
lfemur -14.8597 19.6789 -19.5989
ltibia 13.8738
lfoot -1.88618 -19.6235
ltoes -3.49861e-014
462
root -13.7469 16.7301 5.08489 -330.03 92.0902 -339.743
lowerback -13.5285 -1.36253 1.97685
upperback -5.40553 -1.77443 -0.704533
thorax 1.8095 -0.805414 -2.10617
lowerneck -9.79007 -13.0014 -8.18149
upperneck 5.04502 41.8553 5.73722
head 167.43 57.0741 -37.9856
rclavicle -5.29264e-015 5.36719e-015
rhumerus -33.915 -18.0604 -86.29
rradius 18.8352
rwrist 18.3584
rhand -37.8139 2.59195
rfingers 7.12502
rthumb -10.8598 -27.1073
lclavicle -5.29264e-015 5.36719e-015
lhumerus -34.9083 16.9075 80.4434
lradius 21.1075
lwrist -35.4492
lhand -34.3046 3.91297
lfingers 7.12502
lthumb -7.4736 33.7609
rfemur -9.79843 -19.6548 20.5504
rtibia 13.2117
rfoot -10.9035 14.0992
rtoes -6.2816e-014
lfemur -14.9065 19.7126 -19.6023
ltibia 13.9029
lfoot -1.9052 -19.6619
ltoes -2.8625e-014
463
root -13.7469 16.7289 5.08489 -329.211 92.136 -338.923
lowerback -13.5451 -1.35734 2.01751
upperback -5.39525 -1.77362 -0.695391
thorax 1.82807 -0.805166 -2.12008
lowerneck -9.77045 -12.9951 -8.2007
upperneck 5.03561 41.8211 5.73404
head 167.468 57.127 -37.9603
rclavicle -4.96962e-016 -4.17448e-015
rhumerus -34.0898 -19.3935 -85.4769
rradius 18.1765
rwrist 19.5828
rhand -37.7894 2.17713
rfingers 7.12502
rthumb -10.8361 -27.5233
lclavicle -4.96962e-016 -4.17448e-015
lhumerus -34.8562 15.0785 81.3111
lradius 20.9476
lwrist -33.451
lhand -34.5011 4.12917
lfingers 7.12502
lthumb -7.66327 33.9703
rfemur -9.78792 -19.6457 20.5987
rtibia 13.2056
rfoot -10.8988 14.0675
rtoes -3.97569e-015
lfemur -14.9122 19.6829 -19.5497
ltibia 13.9229
lfoot -1.82509 -19.6695
ltoes -6.36111e-015
464
root -13.7476 16.7289 5.08504 -328.677 92.1834 -338.404
lowerback -13.5753 -1.34867 2.04295
upperback -5.39528 -1.76569 -0.6857
thorax 1.84408 -0.800955 -2.124
lowerneck -9.74547 -13.014 -8.21475
upperneck 5.02574 41.7492 5.7117
head 167.381 57.2198 -38.0078
rclavicle 8.89561e-015 3.97569e-015
rhumerus -34.3363 -20.7361 -84.6127
rradius 17.5715
rwrist 20.9127
rhand -37.9479 2.14662
rfingers 7.12502
rthumb -10.989 -27.5458
lclavicle 8.89561e-015 3.97569e-015
lhumerus -34.9924 15.3459 81.1695
lradius 20.6968
lwrist -33.9753
lhand -34.2348 4.43158
lfingers 7.12502
lthumb -7.40621 34.2819
rfemur -9.78304 -19.5839 20.6449
rtibia 13.1702
rfoot -10.8728 13.9773
rtoes -6.75868e-014
lfemur -14.9679 19.7404 -19.5284
ltibia 13.9638
lfoot -1.82374 -19.7676
ltoes -5.24792e-014
465
root -13.7477 16.7292 5.08534 -328.667 92.2195 -338.369
lowerback -13.5864 -1.34102 2.06016
upperback -5.35891 -1.75981 -0.694211
thorax 1.88758 -0.798129 -2.14266
lowerneck -9.76737 -13.053 -8.19377
upperneck 4.99644 41.64 5.6774
head 167.224 57.3274 -38.099
rclavicle 1.58282e-014 1.78906e-015
rhumerus -34.5499 -22.2505 -83.6635
rradius 16.886
rwrist 22.404
rhand -37.9901 2.07846
rfingers 7.12502
rthumb -11.0297 -27.6118
lclavicle 1.58282e-014 1.78906e-015
lhumerus -35.1754 16.3373 80.6429
lradius 20.3975
lwrist -35.0929
lhand -34.1502 4.05057
lfingers 7.12502
lthumb -7.32458 33.9038
rfemur -9.70813 -19.5522 20.6521
rtibia 13.0803
rfoot -10.8009 13.9093
rtoes 2.38542e-015
lfemur -14.9864 19.7525 -19.507
ltibia 14.0497
lfoot -1.96318 -19.7953
ltoes 2.70347e-014
466
root -13.7479 16.7292 5.08518 -328.494 92.2438 -338.217
lowerback -13.5865 -1.33373 2.0687
upperback -5.38931 -1.7495 -0.684471
thorax 1.85631 -0.792936 -2.13529
lowerneck -9.72774 -13.0218 -8.25704
upperneck 5.04518 41.8055 5.71997
head 167.425 57.1784 -37.9949
rclavicle -3.2054e-015 -1.78906e-015
rhumerus -34.9293 -23.8184 -82.5643
rradius 16.1814
rwrist 23.9497
rhand -38.0696 2.25265
rfingers 7.12502
rthumb -11.1064 -27.4335
lclavicle -3.2054e-015 -1.78906e-015
lhumerus -35.6952 18.2186 79.6162
lradius 20.3222
lwrist -37.4845
lhand -33.7364 3.94659
lfingers 7.12502
lthumb -6.92511 33.8133
rfemur -9.67335 -19.5189 20.6751
rtibia 12.9695
rfoot -10.7543 13.8738
rtoes 6.36111e-015
lfemur -15.0542 19.7547 -19.4987
ltibia 14.1413
lfoot -1.92117 -19.8175
ltoes 6.36111e-015
467
root -13.7421 16.7261 5.08599 -325.535 92.3793 -335.039
lowerback -13.4433 -1.33603 2.207
upperback -5.32268 -1.77529 -0.628262
thorax 1.84498 -0.808811 -2.15554
lowerneck -9.67693 -13.0415 -8.26545
upperneck 5.03037 41.6785 5.68094
head 167.264 57.3087 -38.0658
rclavicle 1.46852e-014 7.15625e-015
rhumerus -35.3453 -25.3497 -81.4501
rradius 15.5409
rwrist 25.4826
rhand -38.1496 2.27647
rfingers 7.12502
rthumb -11.1835 -27.4055
lclavicle 1.46852e-014 7.15625e-015
lhumerus -35.8072 18.1995 79.5918
lradius 20.018
lwrist -37.5497
lhand -33.5858 3.93218
lfingers 7.12502
lthumb -6.7797 33.8036
rfemur -9.33694 -19.1321 20.813
rtibia 12.8926
rfoot -10.7791 13.4183
rtoes -4.21423e-014
lfemur -14.8297 19.7737 -19.1691
ltibia 14.198
lfoot -2.0668 -19.8837
ltoes -1.27222e-014
468
root -13.7427 16.7259 5.0863 -324.949 92.4176 -334.439
lowerback -13.436 -1.33082 2.23269
upperback -5.31057 -1.77272 -0.616027
thorax 1.85338 -0.807771 -2.15689
lowerneck -9.67863 -13.0607 -8.25766
upperneck 5.02703 41.647 5.66966
head 167.178 57.3585 -38.1222
rclavicle 3.35449e-015 1.03368e-014
rhumerus -35.7927 -26.9612 -80.2566
rradius 14.9228
rwrist 27.2412
rhand -38.0894 2.02626
rfingers 7.12502
rthumb -11.1254 -27.6588
lclavicle 3.35449e-015 1.03368e-014
lhumerus -35.9604 18.3997 79.4557
lradius 19.8078
lwrist -37.8376
lhand -33.5408 3.78308
lfingers 7.12502
lthumb -6.73634 33.6559
rfemur -9.21724 -19.1587 20.86
rtibia 12.6581
rfoot -10.6649 13.4459
rtoes -2.46493e-014
lfemur -14.8873 19.7147 -19.1065
ltibia 14.3778
lfoot -2.16889 -19.8368
ltoes -3.18055e-014
469
root -13.7435 16.7253 5.08618 -325.777 92.4182 -335.27
lowerback -13.4218 -1.32738 2.19057
upperback -5.3234 -1.76154 -0.626442
thorax 1.83403 -0.801968 -2.14179
lowerneck -9.64936 -13.0673 -8.27873
upperneck 5.03337 41.6408 5.66835
head 167.185 57.3627 -38.1151
rclavicle 5.889e-015 6.36111e-015
rhumerus -36.3389 -28.6524 -78.9705
rradius 14.2999
rwrist 28.9235
rhand -38.0412 2.00858
rfingers 7.12502
rthumb -11.079 -27.679
lclavicle 5.889e-015 6.36111e-015
lhumerus -36.2821 19.0474 78.988
lradius 19.6586
lwrist -39.2109
lhand -33.1267 3.71629
lfingers 7.12502
lthumb -6.3365 33.6015
rfemur -9.11027 -19.168 20.8222
rtibia 12.4104
rfoot -10.5163 13.4725
rtoes 3.57812e-014
lfemur -14.9642 19.6748 -19.1401
ltibia 14.5525
lfoot -2.1907 -19.8067
ltoes 3.81667e-014
470
root -13.7359 16.7176 5.08142 -318.384 92.7702 -327.402
lowerback -13.0464 -1.28685 2.7446
upperback -5.18069 -1.78508 -0.52384
thorax 1.7639 -0.824013 -2.34243
lowerneck -9.62868 -13.0826 -8.2812
upperneck 5.03601 41.6116 5.66054
head 167.119 57.4115 -38.1558
rclavicle -1.48343e-014 -1.0138e-014
rhumerus -36.9991 -30.4284 -77.5069
rradius 13.6661
rwrist 30.7085
rhand -37.5868 1.45055
rfingers 7.12502
rthumb -10.6407 -28.26
lclavicle -1.48343e-014 -1.0138e-014
lhumerus -36.4977 19.1252 78.9037
lradius 19.5719
lwrist -39.433
lhand -33.0174 3.65136
lfingers 7.12502
lthumb -6.23102 33.5397
rfemur -8.4287 -18.7299 21.2295
rtibia 12.2483
rfoot -10.5026 12.938
rtoes -9.54166e-015
lfemur -14.4698 19.6867 -18.3422
ltibia 14.6642
lfoot -2.26653 -19.8804
ltoes 1.59028e-015
471
root -13.7369 16.7183 5.08108 -318.134 92.8039 -327.141
lowerback -13.0263 -1.27817 2.76359
upperback -5.17577 -1.77603 -0.519422
thorax 1.75822 -0.819905 -2.34679
lowerneck -9.60859 -13.0935 -8.28768
upperneck 5.03951 41.6028 5.66281
head 167.136 57.3936 -38.1394
rclavicle -6.90777e-015 4.17448e-015
rhumerus -37.7728 -32.3641 -75.8939
rradius 13.1051
rwrist 32.8616
rhand -37.5534 1.47198
rfingers 7.12502
rthumb -10.6085 -28.2403
lclavicle -6.90777e-015 4.17448e-015
lhumerus -36.6739 19.4327 78.6751
lradius 19.3559
lwrist -40.1144
lhand -32.6624 3.73587
lfingers 7.12502
lthumb -5.88828 33.6341
rfemur -8.35264 -18.7466 21.2492
rtibia 12.1107
rfoot -10.3889 12.9595
rtoes -3.97569e-015
lfemur -14.4967 19.627 -18.3036
ltibia 14.7538
lfoot -2.43396 -19.8249
ltoes -1.59028e-015
